name Walk1.mot
datacolumns 19
datarows 17
range 3.82000000 3.90000000
endheader

                time	   L_ground_force_vx	   L_ground_force_vy	   L_ground_force_vz	   L_ground_force_px	   L_ground_force_py	   L_ground_force_pz	   R_ground_force_vx	   R_ground_force_vy	   R_ground_force_vz	   R_ground_force_px	   R_ground_force_py	   R_ground_force_pz	   L_ground_torque_x	   L_ground_torque_y	   L_ground_torque_z	   R_ground_torque_x	   R_ground_torque_y	   R_ground_torque_z	
          3.82000000	          0.12511584	          0.38723712	          0.00356006	         -0.00020684	          0.00000000	         -0.00009243	        -11.43183099	        760.25035936	        -67.24269469	          0.25391048	          0.00000000	          0.11744253	          0.00000000	          0.00028910	          0.00000000	          0.00000000	          7.51119959	          0.00000000	
          3.82500000	          0.11094583	          0.32659237	         -0.00020785	         -0.00026603	          0.00000000	         -0.00012196	        -10.21942218	        754.75384313	        -65.98594011	          0.25537926	          0.00000000	          0.11757765	          0.00000000	          0.00027535	          0.00000000	          0.00000000	          7.19126728	          0.00000000	
          3.83000000	          0.09308440	          0.26187255	         -0.00260771	         -0.00028295	          0.00000000	         -0.00013126	         -9.01216227	        749.53182251	        -64.76143159	          0.25686491	          0.00000000	          0.11772708	          0.00000000	          0.00024476	          0.00000000	          0.00000000	          6.87752996	          0.00000000	
          3.83500000	          0.07426836	          0.19965804	         -0.00394045	         -0.00027142	          0.00000000	         -0.00012684	         -7.81885945	        744.55079848	        -63.61208176	          0.25837811	          0.00000000	          0.11789765	          0.00000000	          0.00020578	          0.00000000	          0.00000000	          6.57337008	          0.00000000	
          3.84000000	          0.05632827	          0.14397054	         -0.00448347	         -0.00024256	          0.00000000	         -0.00011398	         -6.65335662	        739.76440362	        -62.57771582	          0.25993053	          0.00000000	          0.11809439	          0.00000000	          0.00016451	          0.00000000	          0.00000000	          6.28297238	          0.00000000	
          3.84500000	          0.04036875	          0.09687290	         -0.00447711	         -0.00020487	          0.00000000	         -0.00009671	         -5.53129264	        735.12598886	        -61.69135230	          0.26153268	          0.00000000	          0.11832126	          0.00000000	          0.00012503	          0.00000000	          0.00000000	          6.01067185	          0.00000000	
          3.85000000	          0.02694154	          0.05900861	         -0.00411894	         -0.00016450	          0.00000000	         -0.00007799	         -4.46591225	        730.60036197	        -60.97609583	          0.26319194	          0.00000000	          0.11858070	          0.00000000	          0.00008983	          0.00000000	          0.00000000	          5.76024689	          0.00000000	
          3.85500000	          0.01620018	          0.03006012	         -0.00356350	         -0.00012560	          0.00000000	         -0.00005982	         -3.46503719	        726.17454162	        -60.44312674	          0.26491167	          0.00000000	          0.11887342	          0.00000000	          0.00006015	          0.00000000	          0.00000000	          5.53429226	          0.00000000	
          3.86000000	          0.00803072	          0.00911861	         -0.00292548	         -0.00009072	          0.00000000	         -0.00004343	         -2.52897969	        721.86452805	        -60.09042208	          0.26669010	          0.00000000	          0.11919873	          0.00000000	          0.00003636	          0.00000000	          0.00000000	          5.33377631	          0.00000000	
          3.86500000	          0.00215667	         -0.00503194	         -0.00228496	         -0.00006118	          0.00000000	         -0.00002949	         -1.65013848	        717.71727582	        -59.90357857	          0.26852215	          0.00000000	          0.11955508	          0.00000000	          0.00001823	          0.00000000	          0.00000000	          5.15774030	          0.00000000	
          3.87000000	         -0.00178082	         -0.01370845	         -0.00169349	         -0.00003739	          0.00000000	         -0.00001822	         -0.81445277	        713.80207133	        -59.85967494	          0.27039992	          0.00000000	          0.11993959	          0.00000000	          0.00000516	          0.00000000	          0.00000000	          5.00348241	          0.00000000	
          3.87500000	         -0.00416501	         -0.01818835	         -0.00118026	         -0.00001918	          0.00000000	         -0.00000955	         -0.00575059	        710.20052340	        -59.93160343	          0.27231217	          0.00000000	          0.12034834	          0.00000000	         -0.00000363	          0.00000000	          0.00000000	          4.86720578	          0.00000000	
          3.88000000	         -0.00536454	         -0.01962275	         -0.00075779	         -0.00000599	          0.00000000	         -0.00000323	          0.79110955	        706.99540781	        -60.09198343	          0.27424749	          0.00000000	          0.12077751	          0.00000000	         -0.00000898	          0.00000000	          0.00000000	          4.74472728	          0.00000000	
          3.88500000	         -0.00570951	         -0.01899068	         -0.00042694	          0.00000295	          0.00000000	          0.00000107	          1.58892097	        704.25816540	        -60.31572460	          0.27619597	          0.00000000	          0.12122345	          0.00000000	         -0.00001170	          0.00000000	          0.00000000	          4.63167803	          0.00000000	
          3.89000000	         -0.00547917	         -0.01708341	         -0.00018100	          0.00000844	          0.00000000	          0.00000375	          2.39795025	        702.04388854	        -60.58331640	          0.27815083	          0.00000000	          0.12168312	          0.00000000	         -0.00001252	          0.00000000	          0.00000000	          4.52397478	          0.00000000	
          3.89500000	         -0.00489813	         -0.01450923	         -0.00000897	          0.00001130	          0.00000000	          0.00000517	          3.22588924	        700.38964657	        -60.88249588	          0.28010871	          0.00000000	          0.12215447	          0.00000000	         -0.00001205	          0.00000000	          0.00000000	          4.41832554	          0.00000000	
          3.90000000	         -0.00413813	         -0.01171095	          0.00010206	          0.00001224	          0.00000000	          0.00000567	          4.07803435	        699.31324942	        -61.20690909	          0.28206899	          0.00000000	          0.12263601	          0.00000000	         -0.00001080	          0.00000000	          0.00000000	          4.31184246	          0.00000000	
